<svg width="80" height="80" viewBox="0 0 120 120" fill="#FEF2E6" xmlns="http://www.w3.org/2000/svg">
<mask id="mask0_216_854" style="mask-type:alpha" maskUnits="userSpaceOnUse" x="0" y="0" width="120" height="120">
<rect width="110" height="110" fill="#FEF2E6"/>
</mask>
<g mask="url(#mask0_216_854)">
<path d="M40 95H75V45H65C62.6667 45 60.75 45.5833 59.25 46.75C57.75 47.9167 55.9583 49.625 53.875 51.875C52.2083 53.7083 50.2708 55.6042 48.0625 57.5625C45.8542 59.5208 43.1667 60.9583 40 61.875V95ZM30 105V61.75C25.6667 60.5833 22.0833 58.25 19.25 54.75C16.4167 51.25 15 47.1667 15 42.5C15 38.0833 16.2708 34.1667 18.8125 30.75C21.3542 27.3333 24.625 24.9583 28.625 23.625C30.5417 19.625 33.3958 16.375 37.1875 13.875C40.9792 11.375 45.25 10.125 50 10.125C52.9167 10.125 55.6458 10.625 58.1875 11.625C60.7292 12.625 63.0417 13.9583 65.125 15.625C65.9583 15.4583 66.75 15.3125 67.5 15.1875C68.25 15.0625 69.0833 15 70 15C75.5 15 80.2083 16.9583 84.125 20.875C88.0417 24.7917 90 29.5 90 35C90 36.8333 89.7708 38.5833 89.3125 40.25C88.8542 41.9167 88.1667 43.5 87.25 45H95C97.75 45 100.104 45.9792 102.062 47.9375C104.021 49.8958 105 52.25 105 55V85C105 87.75 104.021 90.1042 102.062 92.0625C100.104 94.0208 97.75 95 95 95H85V105H30ZM25 42.5C25 45.25 25.9792 47.6042 27.9375 49.5625C29.8958 51.5208 32.25 52.5 35 52.5C37.6667 52.5 39.9375 51.625 41.8125 49.875C43.6875 48.125 45.625 46.1667 47.625 44C49.7083 41.75 52.0625 39.6875 54.6875 37.8125C57.3125 35.9375 60.75 35 65 35H80C80 32.25 79.0208 29.8958 77.0625 27.9375C75.1042 25.9792 72.75 25 70 25C67.9167 25 66.1667 25.2708 64.75 25.8125L62.625 26.625L58.75 23.375C57.8333 22.625 56.6458 21.8958 55.1875 21.1875C53.7292 20.4792 52 20.125 50 20.125C47.3333 20.125 44.8958 20.8333 42.6875 22.25C40.4792 23.6667 38.7917 25.5833 37.625 28L35.875 31.75L31.875 33.125C29.7917 33.7917 28.125 34.9792 26.875 36.6875C25.625 38.3958 25 40.3333 25 42.5ZM85 85H95V55H85V85Z" fill="#FEF2E6"/>
</g>
</svg>