<svg width="80" height="80" viewBox="0 0 100 100" fill="#FEF2E6" xmlns="http://www.w3.org/2000/svg">
<mask id="mask0_216_742" style="mask-type:alpha" maskUnits="userSpaceOnUse" x="0" y="0" width="100" height="100">
<rect width="100" height="100" fill="#FEF2E6"/>
</mask>
<g mask="url(#mask0_216_742)">
<path d="M12.5 91.6668V83.3335H20.8333V70.0002C18.4028 69.1668 16.4063 67.6911 14.8438 65.5731C13.2813 63.455 12.5 61.0418 12.5 58.3335V25.0002H37.5V58.3335C37.5 61.0418 36.7188 63.455 35.1563 65.5731C33.5938 67.6911 31.5972 69.1668 29.1667 70.0002V83.3335H37.5V91.6668H12.5ZM20.8333 45.8335H29.1667V33.3335H20.8333V45.8335ZM54.1667 91.6668C51.875 91.6668 49.9132 90.8509 48.2813 89.2189C46.6493 87.587 45.8333 85.6252 45.8333 83.3335V43.5418C45.8333 41.7363 46.3542 40.1217 47.3958 38.6981C48.4375 37.2745 49.7917 36.2502 51.4583 35.6252L55.4167 34.1668C56.3889 33.8196 57.1181 33.3161 57.6042 32.6564C58.0903 31.9967 58.3333 31.1807 58.3333 30.2085V12.5002C58.3333 11.3196 58.7326 10.33 59.5313 9.53141C60.3299 8.7328 61.3194 8.3335 62.5 8.3335H75C76.1806 8.3335 77.1701 8.7328 77.9688 9.53141C78.7674 10.33 79.1667 11.3196 79.1667 12.5002V30.2085C79.1667 31.1807 79.4097 31.9967 79.8958 32.6564C80.382 33.3161 81.1111 33.8196 82.0833 34.1668L86.0417 35.6252C87.7083 36.2502 89.0625 37.2745 90.1042 38.6981C91.1458 40.1217 91.6667 41.7363 91.6667 43.5418V83.3335C91.6667 85.6252 90.8507 87.587 89.2188 89.2189C87.5868 90.8509 85.625 91.6668 83.3333 91.6668H54.1667ZM66.6667 20.8335H70.8333V16.6668H66.6667V20.8335ZM54.1667 50.0002H83.3333V43.5418L79.375 42.0835C76.7361 41.1113 74.6528 39.5835 73.125 37.5002C71.5972 35.4168 70.8333 33.0557 70.8333 30.4168V29.1668H66.6667V30.4168C66.6667 33.0557 65.9028 35.4168 64.375 37.5002C62.8472 39.5835 60.7639 41.1113 58.125 42.0835L54.1667 43.5418V50.0002ZM54.1667 83.3335H83.3333V75.0002H54.1667V83.3335Z" fill="#FEF2E6"/>
</g>
</svg>