<svg width="120" height="120" viewBox="0 0 120 120" fill="none" xmlns="http://www.w3.org/2000/svg">
<mask id="mask0_216_859" style="mask-type:alpha" maskUnits="userSpaceOnUse" x="0" y="0" width="120" height="120">
<rect width="120" height="120" fill="#D9D9D9"/>
</mask>
<g mask="url(#mask0_216_859)">
<path d="M55.5 45C50.9167 45 46.4167 45.6458 42 46.9375C37.5833 48.2292 33.5 50.1667 29.75 52.75L35 100H85L90.5 50H87C83.8333 50 80.9583 49.7708 78.375 49.3125C75.7917 48.8542 72.25 47.9583 67.75 46.625C65.8333 46.0417 63.8333 45.625 61.75 45.375C59.6667 45.125 57.5833 45 55.5 45ZM28.5 41.875C32.75 39.625 37.1458 37.9167 41.6875 36.75C46.2292 35.5833 50.875 35 55.625 35C58.125 35 60.6042 35.1667 63.0625 35.5C65.5208 35.8333 67.9583 36.3333 70.375 37C74.5417 38.1667 77.7292 38.9583 79.9375 39.375C82.1458 39.7917 84.5 40 87 40H91.625L93.75 20H26.25L28.5 41.875ZM34.875 110C32.2917 110 30.0625 109.167 28.1875 107.5C26.3125 105.833 25.25 103.708 25 101.125L15 10H105L95 101.125C94.75 103.708 93.6875 105.833 91.8125 107.5C89.9375 109.167 87.7083 110 85.125 110H34.875Z" fill="#1C1B1F"/>
</g>
</svg>
