<svg width="80" height="80" viewBox="0 0 80 80" fill="none" xmlns="http://www.w3.org/2000/svg">
<mask id="mask0_505_24" style="mask-type:alpha" maskUnits="userSpaceOnUse" x="0" y="0" width="80" height="80">
<rect width="80" height="80" fill="#D9D9D9"/>
</mask>
<g mask="url(#mask0_505_24)">
<path d="M37 29.9998C33.9444 29.9998 30.9444 30.4304 28 31.2915C25.0556 32.1526 22.3333 33.4443 19.8333 35.1665L23.3333 66.6665H56.6667L60.3333 33.3332H58C55.8889 33.3332 53.9722 33.1804 52.25 32.8748C50.5278 32.5693 48.1667 31.9721 45.1667 31.0832C43.8889 30.6943 42.5556 30.4165 41.1667 30.2498C39.7778 30.0832 38.3889 29.9998 37 29.9998ZM19 27.9165C21.8333 26.4165 24.7639 25.2776 27.7917 24.4998C30.8194 23.7221 33.9167 23.3332 37.0833 23.3332C38.75 23.3332 40.4028 23.4443 42.0417 23.6665C43.6806 23.8887 45.3056 24.2221 46.9167 24.6665C49.6944 25.4443 51.8194 25.9721 53.2917 26.2498C54.7639 26.5276 56.3333 26.6665 58 26.6665H61.0833L62.5 13.3332H17.5L19 27.9165ZM23.25 73.3332C21.5278 73.3332 20.0417 72.7776 18.7917 71.6665C17.5417 70.5554 16.8333 69.1387 16.6667 67.4165L10 6.6665H70L63.3333 67.4165C63.1667 69.1387 62.4583 70.5554 61.2083 71.6665C59.9583 72.7776 58.4722 73.3332 56.75 73.3332H23.25Z" fill="#FEF2E6"/>
</g>
</svg>
