<svg width="80" height="80" viewBox="0 0 80 80" fill="none" xmlns="http://www.w3.org/2000/svg">
<mask id="mask0_504_19" style="mask-type:alpha" maskUnits="userSpaceOnUse" x="0" y="0" width="80" height="80">
<rect width="80" height="80" fill="#D9D9D9"/>
</mask>
<g mask="url(#mask0_504_19)">
<path d="M50.5833 36.6665H32.75C32.4722 37.3332 32.1389 37.9859 31.75 38.6248C31.3611 39.2637 30.8889 39.8054 30.3333 40.2498L32.75 66.6665H50.5833L53 40.2498C52.4445 39.7498 51.9722 39.1943 51.5833 38.5832C51.1945 37.9721 50.8611 37.3332 50.5833 36.6665ZM31.8333 23.3332L30.9167 26.9998C31.3056 27.4443 31.6528 27.9165 31.9583 28.4165C32.2639 28.9165 32.5278 29.4443 32.75 29.9998H50.5833C50.8056 29.4443 51.0695 28.9165 51.375 28.4165C51.6806 27.9165 52.0278 27.4443 52.4167 26.9998L51.5 23.3332H31.8333ZM32.75 73.3332C31.0278 73.3332 29.5278 72.7637 28.25 71.6248C26.9722 70.486 26.25 69.0554 26.0833 67.3332L23.5 38.4998C23.4445 37.9443 23.5417 37.4304 23.7917 36.9582C24.0417 36.4859 24.4167 36.1109 24.9167 35.8332C25.3611 35.5554 25.75 35.2221 26.0833 34.8332C26.4167 34.4443 26.5833 33.9721 26.5833 33.4165C26.5833 32.9165 26.4722 32.4582 26.25 32.0415C26.0278 31.6248 25.6945 31.2776 25.25 30.9998C24.6945 30.7221 24.2778 30.2915 24 29.7082C23.7222 29.1248 23.6667 28.5276 23.8333 27.9165L26 19.1665C26.1667 18.3887 26.5556 17.7776 27.1667 17.3332C27.7778 16.8887 28.4722 16.6665 29.25 16.6665H38.3333V13.3332H33.3333V6.6665H50V13.3332H45V16.6665H54.0833C54.8611 16.6665 55.5417 16.8887 56.125 17.3332C56.7083 17.7776 57.0833 18.3887 57.25 19.1665L59.5 27.9165C59.6667 28.5276 59.6111 29.1248 59.3333 29.7082C59.0556 30.2915 58.6389 30.7221 58.0833 30.9998C57.6389 31.2221 57.2917 31.5276 57.0417 31.9165C56.7917 32.3054 56.6667 32.7498 56.6667 33.2498C56.6667 33.8609 56.8195 34.3748 57.125 34.7915C57.4306 35.2082 57.8333 35.5554 58.3333 35.8332C58.8333 36.1109 59.2222 36.4859 59.5 36.9582C59.7778 37.4304 59.8889 37.9443 59.8333 38.4998L57.25 67.2498C57.0833 68.9721 56.3611 70.4165 55.0833 71.5832C53.8056 72.7498 52.3056 73.3332 50.5833 73.3332H32.75Z" fill="#FEF2E6"/>
</g>
</svg>
