<svg width="80" height="80" viewBox="0 0 80 80" fill="none" xmlns="http://www.w3.org/2000/svg">
<mask id="mask0_504_20" style="mask-type:alpha" maskUnits="userSpaceOnUse" x="0" y="0" width="80" height="80">
<rect width="80" height="80" fill="#D9D9D9"/>
</mask>
<g mask="url(#mask0_504_20)">
<path d="M24.1006 74.1095C22.3784 74.1095 20.8923 73.5401 19.6423 72.4012C18.3923 71.2623 17.6839 69.8595 17.5173 68.1929L10.8506 7.44287H70.8506L64.1839 68.1929C64.0173 69.8595 63.3089 71.2623 62.0589 72.4012C60.8089 73.5401 59.3228 74.1095 57.6006 74.1095H24.1006ZM20.5173 34.1095L24.1839 67.4429H57.5173L61.1839 34.1095H20.5173ZM19.6839 27.4429H62.0173L63.3506 14.1095H18.3506L19.6839 27.4429ZM40.8506 57.4429C40.0728 57.4429 39.4061 57.1651 38.8506 56.6095C38.295 56.054 38.0173 55.3873 38.0173 54.6095C38.0173 53.7762 38.2534 52.8179 38.7256 51.7345C39.1978 50.6512 39.9061 49.4151 40.8506 48.0262C41.795 49.4151 42.5034 50.6512 42.9756 51.7345C43.4478 52.8179 43.6839 53.7762 43.6839 54.6095C43.6839 55.3873 43.4061 56.054 42.8506 56.6095C42.295 57.1651 41.6284 57.4429 40.8506 57.4429ZM40.8506 64.1095C43.5173 64.1095 45.7673 63.1929 47.6006 61.3595C49.4339 59.5262 50.3506 57.2762 50.3506 54.6095C50.3506 52.3318 49.6145 49.8595 48.1423 47.1929C46.67 44.5262 44.2395 41.2762 40.8506 37.4429C37.4617 41.2762 35.0311 44.5262 33.5589 47.1929C32.0867 49.8595 31.3506 52.3318 31.3506 54.6095C31.3506 57.2762 32.2673 59.5262 34.1006 61.3595C35.9339 63.1929 38.1839 64.1095 40.8506 64.1095Z" fill="#FEF2E6"/>
</g>
</svg>
